HIERARCHY
ROOT Hips
{
  OFFSET 39.4171 81.7151 -3.59683
  CHANNELS 6 Xposition Yposition Zposition Zrotation Xrotation Yrotation
  JOINT spine
  {
    OFFSET 0 6.24479 0.359107
    CHANNELS 3 Zrotation Xrotation Yrotation
    JOINT spine1
    {
      OFFSET 0 9.06941 0
      CHANNELS 3 Zrotation Xrotation Yrotation
      JOINT spine2
      {
        OFFSET 0 8.69014 0
        CHANNELS 3 Zrotation Xrotation Yrotation
        JOINT Neck
        {
          OFFSET 0 22.3112 1.06372
          CHANNELS 3 Zrotation Xrotation Yrotation
          JOINT Head
          {
            OFFSET 0 6.74081 0
            CHANNELS 3 Zrotation Xrotation Yrotation
            End Site
            {
              OFFSET 0 16.3165 -5.38097
            }
          }
        }
        JOINT RightShoulder
        {
          OFFSET -3.65916 9.38468 -0.509514
          CHANNELS 3 Zrotation Xrotation Yrotation
          JOINT RightArm
          {
            OFFSET 0 12.3089 0
            CHANNELS 3 Zrotation Xrotation Yrotation
            JOINT RightArmRoll
            {
              OFFSET 0 6.21375 0
              CHANNELS 3 Zrotation Xrotation Yrotation
              JOINT RightForeArm
              {
                OFFSET 0 18.0985 0
                CHANNELS 3 Zrotation Xrotation Yrotation
                JOINT RightForeArmRoll
                {
                  OFFSET 0 6.97279 0
                  CHANNELS 3 Zrotation Xrotation Yrotation
                  JOINT RightHand
                  {
                    OFFSET 0 13.9929 0
                    CHANNELS 3 Zrotation Xrotation Yrotation
                    End Site
                    {
                      OFFSET 0 0 0
                    }
                  }
                }
              }
            }
          }
        }
        JOINT LeftShoulder
        {
          OFFSET 3.65916 9.38468 -0.509514
          CHANNELS 3 Zrotation Xrotation Yrotation
          JOINT LeftArm
          {
            OFFSET 0 12.3089 0
            CHANNELS 3 Zrotation Xrotation Yrotation
            JOINT LeftArmRoll
            {
              OFFSET 0 6.21375 0
              CHANNELS 3 Zrotation Xrotation Yrotation
              JOINT LeftForeArm
              {
                OFFSET 0 18.0985 0
                CHANNELS 3 Zrotation Xrotation Yrotation
                JOINT LeftForeArmRoll
                {
                  OFFSET 0 6.97279 0
                  CHANNELS 3 Zrotation Xrotation Yrotation
                  JOINT LeftHand
                  {
                    OFFSET 0 13.9929 0
                    CHANNELS 3 Zrotation Xrotation Yrotation
                    End Site
                    {
                      OFFSET 0 0 0
                    }
                  }
                }
              }
            }
          }
        }
      }
    }
  }
  JOINT RightUpLeg
  {
    OFFSET -5.53515 -1.015 -0.851454
    CHANNELS 3 Zrotation Xrotation Yrotation
    JOINT RightUpLegRoll
    {
      OFFSET 0 16.4075 0
      CHANNELS 3 Zrotation Xrotation Yrotation
      JOINT RightLeg
      {
        OFFSET 0 -20.3181 0
        CHANNELS 3 Zrotation Xrotation Yrotation
        JOINT RightLegRoll
        {
          OFFSET 0 20.3846 0
          CHANNELS 3 Zrotation Xrotation Yrotation
          JOINT RightFoot
          {
            OFFSET 0 16.9668 0
            CHANNELS 3 Zrotation Xrotation Yrotation
            JOINT RightToeBase
            {
              OFFSET 0 14.1834 0
              CHANNELS 3 Zrotation Xrotation Yrotation
              End Site
              {
                OFFSET 0.0060118 6.86889 -0.791746
              }
            }
          }
        }
      }
    }
  }
  JOINT LeftUpLeg
  {
    OFFSET 5.53515 -1.015 -0.851454
    CHANNELS 3 Zrotation Xrotation Yrotation
    JOINT LeftUpLegRoll
    {
      OFFSET 0 16.4076 0
      CHANNELS 3 Zrotation Xrotation Yrotation
      JOINT LeftLeg
      {
        OFFSET 0 20.3181 0
        CHANNELS 3 Zrotation Xrotation Yrotation
        JOINT LeftLegRoll
        {
          OFFSET 0 20.5731 0
          CHANNELS 3 Zrotation Xrotation Yrotation
          JOINT LeftFoot
          {
            OFFSET 0 16.7783 0
            CHANNELS 3 Zrotation Xrotation Yrotation
            JOINT LeftToeBase
            {
              OFFSET 0 14.1834 0
              CHANNELS 3 Zrotation Xrotation Yrotation
              End Site
              {
                OFFSET -0.0269423 6.8689 -0.791746
              }
            }
          }
        }
      }
    }
  }
}
MOTION
Frames: 10
Frame Time: 0.00208333
35.4026 83.2053 -0.1231 -0.412631 3.45016 -6.55523 0.168084 -0.767087 -0.06357 0.324329 2.46838 -0.15979 0.326586 4.11345 -0.16504 -0.225704 20.1011 6.85061 -9.80187 8.19979 6.67252 63.6809 -2.48197 -1.93525 106.65 10.6915 4.64876 -1.8465e-006 1.97607e-006 9.73837e-006 11.0603 48.8615 -6.8322 -1.65042e-006 7.78047e-007 -3 8.02927 -4.95158 0.69771 -59.895 -8.52563 5.30533 -116.019 11.4474 1.92717 4.99708e-006 6.42687e-007 1.88923e-007 -5.59503 74.2266 5.73756 4.60536e-006 7.75641e-006 3 -8.0302 -4.95096 -0.697558 177.408 16.1546 -0.475536 180 7.01604e-015 179.21 179.528 18.5712 178.821 3.74454e-006 2.95649e-007 0.0747242 -16.1702 69.2182 20.4721 8.13005 25.233 -3.48498 -168.069 7.79525 -5.29971 4.54188e-006 -4.6773e-006 -0.668844 1.00741 -16.4875 1.43217 2.45565e-006 7.5488e-007 -0.334931 21.1141 74.2102 -25.913 -8.13656 25.2614 3.44946 
35.3599 83.2121 -0.112105 -0.419938 3.42885 -6.50311 0.167746 -0.762446 -0.0655126 0.324504 2.47761 -0.162779 0.326799 4.12267 -0.168058 -0.160422 20.0333 6.81918 -9.84032 8.20516 6.66541 63.7042 -2.52248 -1.96012 106.601 10.7209 4.66306 -1.8465e-006 1.97607e-006 9.73837e-006 11.0558 48.8802 -6.83269 -1.65042e-006 7.78047e-007 -3 8.02927 -4.95158 0.69771 -59.8436 -8.56447 5.32861 -116.11 11.4743 2.0032 4.99708e-006 6.42687e-007 1.88923e-007 -5.61446 74.2353 5.75779 4.60536e-006 7.75641e-006 3 -8.0302 -4.95096 -0.697558 177.437 16.135 -0.48108 180 7.01604e-015 179.209 179.516 18.6026 178.823 3.74454e-006 2.95649e-007 0.0764848 -16.2007 69.2462 20.4958 8.13005 25.233 -3.48498 -168.046 7.79611 -5.30761 4.54188e-006 -4.6773e-006 -0.669363 1.02034 -16.5044 1.43464 2.45565e-006 7.5488e-007 -0.335914 21.1032 74.2018 -25.9007 -8.13656 25.2614 3.44946 
35.3303 83.216 -0.113769 -0.427742 3.40704 -6.45074 0.167276 -0.757613 -0.0674987 0.324447 2.48719 -0.165841 0.326779 4.13225 -0.171145 -0.0919422 19.9651 6.78667 -9.88083 8.21143 6.65846 63.7301 -2.56355 -1.98553 106.551 10.7511 4.67685 -1.8465e-006 1.97607e-006 9.73836e-006 11.0518 48.8984 -6.83336 -1.65042e-006 7.78047e-007 -3 8.02927 -4.95158 0.69771 -59.7889 -8.60453 5.3526 -116.203 11.5024 2.08065 4.99708e-006 6.42687e-007 1.88923e-007 -5.63373 74.2438 5.77783 4.60536e-006 7.75641e-006 3 -8.0302 -4.95096 -0.697558 177.467 16.1141 -0.486419 180 7.01604e-015 179.209 179.503 18.6328 178.825 3.74454e-006 2.95649e-007 0.0781814 -16.2301 69.2739 20.5191 8.13005 25.233 -3.48498 -168.022 7.79629 -5.31605 4.54188e-006 -4.6773e-006 -0.669846 1.03326 -16.5214 1.4371 2.45565e-006 7.5488e-007 -0.336895 21.0922 74.1936 -25.8885 -8.13656 25.2614 3.44946 
35.2823 83.2141 -0.102424 -0.435881 3.38486 -6.39819 0.166713 -0.752645 -0.0695154 0.324225 2.49702 -0.168954 0.326597 4.14208 -0.174282 -0.0212396 19.8967 6.75341 -9.92278 8.21834 6.65161 63.7579 -2.60502 -2.01134 106.498 10.7819 4.69028 -1.8465e-006 1.97607e-006 9.73837e-006 11.0481 48.9163 -6.83414 -1.65042e-006 7.78047e-007 -3 8.02927 -4.95158 0.69771 -59.732 -8.64545 5.37711 -116.299 11.5313 2.15909 4.99708e-006 6.42687e-007 1.88923e-007 -5.65291 74.2522 5.79774 4.60536e-006 7.75641e-006 3 -8.0302 -4.95096 -0.697558 177.497 16.0923 -0.491615 180 7.01604e-015 179.208 179.489 18.6622 178.828 3.74454e-006 2.95649e-007 0.0798329 -16.2588 69.3011 20.5422 8.13005 25.233 -3.48498 -167.997 7.79599 -5.32487 4.54188e-006 -4.6773e-006 -0.670302 1.04618 -16.5385 1.43955 2.45565e-006 7.5488e-007 -0.337876 21.0812 74.1855 -25.8764 -8.13656 25.2614 3.44946 
35.2518 83.2037 -0.102954 -0.444196 3.36247 -6.34554 0.166096 -0.747599 -0.0715497 0.32391 2.50699 -0.172097 0.32632 4.15205 -0.177446 0.0507114 19.8281 6.71973 -9.96555 8.22561 6.64483 63.7868 -2.64673 -2.03736 106.445 10.813 4.70351 -1.8465e-006 1.97607e-006 9.73837e-006 11.0446 48.9341 -6.83499 -1.65042e-006 7.78047e-007 -3 8.02927 -4.95158 0.69771 -59.6736 -8.68685 5.4019 -116.396 11.5607 2.23812 4.99708e-006 6.42687e-007 1.88923e-007 -5.67203 74.2606 5.81759 4.60536e-006 7.75641e-006 3 -8.0302 -4.95096 -0.697558 177.527 16.0701 -0.496726 180 7.01604e-015 179.208 179.475 18.6912 178.831 3.74454e-006 2.95649e-007 0.0814583 -16.2871 69.3283 20.5652 8.13005 25.233 -3.48498 -167.972 7.79542 -5.3339 4.54188e-006 -4.6773e-006 -0.670743 1.05911 -16.5556 1.44199 2.45565e-006 7.5488e-007 -0.338856 21.0701 74.1773 -25.8644 -8.13656 25.2614 3.44946 
35.1821 83.1928 -0.073408 -0.452529 3.34002 -6.29287 0.165465 -0.742531 -0.0735888 0.32357 2.51701 -0.175247 0.326019 4.16207 -0.180619 0.122938 19.7595 6.68596 -10.0086 8.23299 6.63806 63.8158 -2.68849 -2.06345 106.392 10.8442 4.71668 -1.8465e-006 1.97607e-006 9.73836e-006 11.0412 48.9518 -6.83587 -1.65042e-006 7.78047e-007 -3 8.02927 -4.95158 0.69771 -59.6149 -8.72839 5.42679 -116.493 11.5902 2.31733 4.99708e-006 6.42687e-007 1.88923e-007 -5.69116 74.269 5.83744 4.60536e-006 7.75641e-006 3 -8.0302 -4.95096 -0.697558 177.557 16.0477 -0.501814 180 7.01604e-015 179.207 179.462 18.72 178.833 3.74454e-006 2.95649e-007 0.0830767 -16.3154 69.3553 20.5882 8.13005 25.233 -3.48498 -167.947 7.79477 -5.343 4.54188e-006 -4.6773e-006 -0.67118 1.07204 -16.5728 1.44443 2.45565e-006 7.5488e-007 -0.339836 21.0591 74.1692 -25.8524 -8.13656 25.2614 3.44946 
35.148 83.194 -0.0761592 -0.460721 3.31765 -6.24024 0.164859 -0.737499 -0.0756198 0.323274 2.52696 -0.178385 0.325762 4.17202 -0.183778 0.194471 19.691 6.65244 -10.0512 8.24019 6.63127 63.8444 -2.73015 -2.08944 106.339 10.8753 4.72995 -1.8465e-006 1.97607e-006 9.73837e-006 11.0377 48.9696 -6.83671 -1.65042e-006 7.78047e-007 -3 8.02927 -4.95158 0.69771 -59.5568 -8.76969 5.45155 -116.59 11.6195 2.39629 4.99708e-006 6.42687e-007 1.88923e-007 -5.71034 74.2774 5.85736 4.60536e-006 7.75641e-006 3 -8.0302 -4.95096 -0.697558 177.587 16.0255 -0.506939 180 7.01604e-015 179.207 179.448 18.749 178.836 3.74454e-006 2.95649e-007 0.0847069 -16.344 69.3824 20.6114 8.13005 25.233 -3.48498 -167.922 7.79425 -5.35199 4.54188e-006 -4.6773e-006 -0.671625 1.08497 -16.5899 1.44688 2.45565e-006 7.5488e-007 -0.340816 21.0481 74.1611 -25.8403 -8.13656 25.2614 3.44946 
35.158 83.1945 -0.103277 -0.468615 3.29552 -6.18775 0.164317 -0.73256 -0.0776299 0.323092 2.53674 -0.181487 0.325618 4.18179 -0.186905 0.264341 19.6225 6.61949 -10.0928 8.24697 6.6244 63.8716 -2.77153 -2.11517 106.287 10.9059 4.74347 -1.8465e-006 1.97607e-006 9.73837e-006 11.034 48.9876 -6.83747 -1.65042e-006 7.78047e-007 -3 8.02927 -4.95158 0.69771 -59.5001 -8.81041 5.47598 -116.686 11.6482 2.47459 4.99708e-006 6.42687e-007 1.88923e-007 -5.72963 74.2858 5.87739 4.60536e-006 7.75641e-006 3 -8.0302 -4.95096 -0.697558 177.617 16.0039 -0.512161 180 7.01604e-015 179.206 179.435 18.7787 178.838 3.74454e-006 2.95649e-007 0.086368 -16.3731 69.4098 20.6348 8.13005 25.233 -3.48498 -167.898 7.79405 -5.36073 4.54188e-006 -4.6773e-006 -0.672086 1.0979 -16.607 1.44933 2.45565e-006 7.5488e-007 -0.341797 21.0371 74.1529 -25.8283 -8.13656 25.2614 3.44946 
35.1095 83.1903 -0.0948056 -0.476054 3.27377 -6.13545 0.163878 -0.72777 -0.0796061 0.323093 2.54624 -0.184533 0.325657 4.19129 -0.189977 0.331583 19.5544 6.58746 -10.1329 8.25303 6.61741 63.8968 -2.81247 -2.14048 106.236 10.936 4.7574 -1.8465e-006 1.97607e-006 9.73837e-006 11.0298 49.0059 -6.83811 -1.65042e-006 7.78047e-007 -3 8.02927 -4.95158 0.69771 -59.446 -8.85016 5.49986 -116.779 11.6759 2.55182 4.99708e-006 6.42687e-007 1.88923e-007 -5.74907 74.2943 5.8976 4.60536e-006 7.75641e-006 3 -8.0302 -4.95096 -0.697558 177.646 15.9833 -0.51754 180 7.01604e-015 179.206 179.422 18.8091 178.841 3.74454e-006 2.95649e-007 0.088079 -16.4032 69.4375 20.6586 8.13005 25.233 -3.48498 -167.874 7.79439 -5.36905 4.54188e-006 -4.6773e-006 -0.672577 1.11083 -16.624 1.4518 2.45565e-006 7.5488e-007 -0.342779 21.0263 74.1447 -25.8161 -8.13656 25.2614 3.44946 
35.0504 83.1823 -0.0692613 -0.482882 3.25255 -6.08344 0.163583 -0.723187 -0.0815357 0.323347 2.55535 -0.187501 0.325949 4.2004 -0.192975 0.39523 19.4865 6.55667 -10.1707 8.25813 6.61025 63.919 -2.85278 -2.16521 106.188 10.9651 4.7719 -1.8465e-006 1.97607e-006 9.73837e-006 11.0251 49.0246 -6.83856 -1.65042e-006 7.78047e-007 -3 8.02927 -4.95158 0.69771 -59.3953 -8.8886 5.52299 -116.869 11.7022 2.62756 4.99708e-006 6.42687e-007 1.88923e-007 -5.76873 74.303 5.91806 4.60536e-006 7.75641e-006 3 -8.0302 -4.95096 -0.697558 177.675 15.964 -0.523136 180 7.01603e-015 179.205 179.409 18.8409 178.843 3.74454e-006 2.95649e-007 0.0898589 -16.4345 69.4656 20.683 8.13005 25.233 -3.48498 -167.851 7.79545 -5.37678 4.54188e-006 -4.6773e-006 -0.673107 1.12377 -16.6408 1.45427 2.45565e-006 7.5488e-007 -0.343762 21.0155 74.1363 -25.8039 -8.13656 25.2614 3.44946 
